<svg width="770" height="634" viewBox="0 0 770 634" fill="none" xmlns="http://www.w3.org/2000/svg">
<mask id="mask0_401_2" style="mask-type:alpha" maskUnits="userSpaceOnUse" x="335" y="0" width="247" height="447">
<path fill-rule="evenodd" clip-rule="evenodd" d="M335.829 0H581.015V446.508H335.829V0Z" fill="white"/>
</mask>
<g mask="url(#mask0_401_2)">
<path fill-rule="evenodd" clip-rule="evenodd" d="M367.462 3.93067C341.312 14.783 328.904 44.7952 339.759 70.9547L482.375 414.861C493.223 441.021 523.219 453.434 549.375 442.581C575.532 431.723 587.94 401.717 577.086 375.557L434.476 31.6442C423.621 5.4847 393.619 -6.92811 367.462 3.93067Z" fill="#F5B325"/>
</g>
<mask id="mask1_401_2" style="mask-type:alpha" maskUnits="userSpaceOnUse" x="48" y="0" width="245" height="447">
<path fill-rule="evenodd" clip-rule="evenodd" d="M48 0.00146484H292.382V446.508H48V0.00146484Z" fill="white"/>
</mask>
<g mask="url(#mask1_401_2)">
<path fill-rule="evenodd" clip-rule="evenodd" d="M79.5318 442.583C53.4675 431.724 41.0999 401.712 51.9127 375.552L194.06 31.6457C204.879 5.48617 234.769 -6.92664 260.846 3.93214C286.917 14.7844 299.285 44.7902 288.465 70.9497L146.318 414.863C135.505 441.022 105.603 453.435 79.5318 442.583Z" fill="#F5B325"/>
</g>
<mask id="mask2_401_2" style="mask-type:alpha" maskUnits="userSpaceOnUse" x="478" y="0" width="246" height="447">
<path fill-rule="evenodd" clip-rule="evenodd" d="M478.526 0.00146484H723.712V446.508H478.526V0.00146484Z" fill="white"/>
</mask>
<g mask="url(#mask2_401_2)">
<path fill-rule="evenodd" clip-rule="evenodd" d="M692.078 442.583C718.229 431.724 730.637 401.712 719.789 375.552L577.172 31.6457C566.318 5.48617 536.322 -6.92664 510.166 3.93214C484.009 14.7844 471.6 44.7902 482.455 70.9497L625.072 414.863C635.92 441.022 665.922 453.435 692.078 442.583Z" fill="#618CFA"/>
</g>
<path opacity="0.123512" fill-rule="evenodd" clip-rule="evenodd" d="M412.099 248.285L467.924 114.503L433.198 31.2842C428.798 20.7419 421.239 12.4841 412.099 7.03491C402.959 12.4841 395.4 20.7419 390.999 31.2842L356.267 114.503L412.099 248.285Z" fill="black"/>
<mask id="mask3_401_2" style="mask-type:alpha" maskUnits="userSpaceOnUse" x="190" y="0" width="246" height="447">
<path fill-rule="evenodd" clip-rule="evenodd" d="M190.697 0H435.885V446.508H190.697V0Z" fill="white"/>
</mask>
<g mask="url(#mask3_401_2)">
<path fill-rule="evenodd" clip-rule="evenodd" d="M404.245 3.93067C430.402 14.783 442.811 44.7952 431.956 70.9547L289.34 414.861C278.491 441.021 248.496 453.434 222.333 442.581C196.182 431.723 183.774 401.717 194.622 375.557L337.239 31.6442C348.094 5.4847 378.095 -6.92811 404.245 3.93067Z" fill="#618CFA"/>
</g>
<path d="M0 611.094V551.094H20.4688V562.5H21.0938C22.3438 558.75 24.4792 555.781 27.5 553.594C30.5208 551.406 34.1146 550.312 38.2812 550.312C42.5 550.312 46.1328 551.432 49.1797 553.672C52.2266 555.885 54.0625 558.828 54.6875 562.5H55.3125C56.3281 558.828 58.4896 555.885 61.7969 553.672C65.1042 551.432 68.9844 550.312 73.4375 550.312C79.1927 550.312 83.8542 552.161 87.4219 555.859C91.0156 559.557 92.8125 564.479 92.8125 570.625V611.094H71.25V576.094C71.25 573.464 70.5859 571.406 69.2578 569.922C67.9297 568.411 66.1458 567.656 63.9062 567.656C61.6927 567.656 59.9349 568.411 58.6328 569.922C57.3568 571.406 56.7188 573.464 56.7188 576.094V611.094H36.0938V576.094C36.0938 573.464 35.4297 571.406 34.1016 569.922C32.7734 568.411 30.9896 567.656 28.75 567.656C27.2656 567.656 25.9896 567.995 24.9219 568.672C23.8542 569.349 23.0208 570.326 22.4219 571.602C21.849 572.852 21.5625 574.349 21.5625 576.094V611.094H0Z" fill="#F5B325"/>
<path d="M114.424 633.594C111.95 633.594 109.593 633.398 107.354 633.008C105.114 632.643 103.148 632.135 101.455 631.484L106.143 616.172C107.913 616.797 109.528 617.201 110.986 617.383C112.471 617.565 113.734 617.461 114.775 617.07C115.843 616.68 116.611 615.938 117.08 614.844L117.549 613.75L96.4551 551.094H118.955L128.643 592.656H129.268L139.111 551.094H161.768L139.893 616.094C138.799 619.401 137.21 622.37 135.127 625C133.07 627.656 130.361 629.753 127.002 631.289C123.643 632.826 119.45 633.594 114.424 633.594Z" fill="#F5B325"/>
<path d="M216.514 556.094C216.305 553.49 215.329 551.458 213.584 550C211.865 548.542 209.248 547.812 205.732 547.812C203.493 547.812 201.657 548.086 200.225 548.633C198.818 549.154 197.777 549.87 197.1 550.781C196.423 551.693 196.071 552.734 196.045 553.906C195.993 554.87 196.162 555.742 196.553 556.523C196.969 557.279 197.62 557.969 198.506 558.594C199.391 559.193 200.524 559.74 201.904 560.234C203.285 560.729 204.925 561.172 206.826 561.563L213.389 562.969C217.816 563.906 221.605 565.143 224.756 566.68C227.907 568.216 230.485 570.026 232.49 572.109C234.495 574.167 235.967 576.484 236.904 579.063C237.868 581.641 238.363 584.453 238.389 587.5C238.363 592.76 237.048 597.214 234.443 600.859C231.839 604.505 228.115 607.279 223.271 609.18C218.454 611.081 212.66 612.031 205.889 612.031C198.936 612.031 192.868 611.003 187.686 608.945C182.529 606.888 178.519 603.724 175.654 599.453C172.816 595.156 171.383 589.661 171.357 582.969H191.982C192.113 585.417 192.725 587.474 193.818 589.141C194.912 590.807 196.449 592.07 198.428 592.93C200.433 593.789 202.816 594.219 205.576 594.219C207.894 594.219 209.834 593.932 211.396 593.359C212.959 592.786 214.144 591.992 214.951 590.977C215.758 589.961 216.175 588.802 216.201 587.5C216.175 586.276 215.771 585.208 214.99 584.297C214.235 583.359 212.985 582.526 211.24 581.797C209.495 581.042 207.139 580.339 204.17 579.688L196.201 577.969C189.118 576.432 183.532 573.867 179.443 570.273C175.381 566.654 173.363 561.719 173.389 555.469C173.363 550.391 174.717 545.951 177.451 542.148C180.212 538.32 184.027 535.339 188.896 533.203C193.792 531.068 199.404 530 205.732 530C212.191 530 217.777 531.081 222.49 533.242C227.204 535.404 230.837 538.451 233.389 542.383C235.967 546.289 237.269 550.859 237.295 556.094H216.514Z" fill="#618CFA"/>
<path d="M264.316 611.094H240.879L267.285 531.094H296.973L323.379 611.094H299.941L282.441 553.125H281.816L264.316 611.094ZM259.941 579.531H304.004V595.781H259.941V579.531Z" fill="#618CFA"/>
<path d="M331.084 611.094V531.094H387.334V548.594H352.803V562.344H383.896V579.844H352.803V611.094H331.084Z" fill="#618CFA"/>
<path d="M395.322 611.094V531.094H452.979V548.594H417.041V562.344H450.01V579.844H417.041V593.594H452.822V611.094H395.322Z" fill="#618CFA"/>
<path d="M483.92 577.344V611.094H462.357V551.094H482.826V562.5H483.451C484.753 558.698 487.045 555.716 490.326 553.555C493.633 551.393 497.488 550.312 501.889 550.312C506.133 550.312 509.818 551.289 512.943 553.242C516.094 555.169 518.529 557.826 520.248 561.211C521.993 564.596 522.852 568.464 522.826 572.812V611.094H501.264V577.344C501.29 574.375 500.535 572.044 498.998 570.352C497.488 568.659 495.378 567.812 492.67 567.812C490.899 567.812 489.35 568.203 488.021 568.984C486.719 569.74 485.717 570.833 485.014 572.266C484.311 573.672 483.946 575.365 483.92 577.344Z" fill="#F5B325"/>
<path d="M562.377 612.188C555.867 612.188 550.294 610.898 545.658 608.32C541.023 605.716 537.468 602.096 534.994 597.461C532.52 592.799 531.283 587.396 531.283 581.25C531.283 575.104 532.52 569.714 534.994 565.078C537.468 560.417 541.023 556.797 545.658 554.219C550.294 551.615 555.867 550.312 562.377 550.312C568.887 550.312 574.46 551.615 579.096 554.219C583.731 556.797 587.286 560.417 589.76 565.078C592.234 569.714 593.471 575.104 593.471 581.25C593.471 587.396 592.234 592.799 589.76 597.461C587.286 602.096 583.731 605.716 579.096 608.32C574.46 610.898 568.887 612.188 562.377 612.188ZM562.533 596.25C564.356 596.25 565.932 595.638 567.26 594.414C568.588 593.19 569.617 591.445 570.346 589.18C571.075 586.914 571.439 584.219 571.439 581.094C571.439 577.943 571.075 575.247 570.346 573.008C569.617 570.742 568.588 568.997 567.26 567.773C565.932 566.549 564.356 565.938 562.533 565.938C560.606 565.938 558.952 566.549 557.572 567.773C556.192 568.997 555.137 570.742 554.408 573.008C553.679 575.247 553.314 577.943 553.314 581.094C553.314 584.219 553.679 586.914 554.408 589.18C555.137 591.445 556.192 593.19 557.572 594.414C558.952 595.638 560.606 596.25 562.533 596.25Z" fill="#F5B325"/>
<path d="M638.002 551.094V566.719H598.471V551.094H638.002ZM606.127 536.719H627.689V591.797C627.689 592.63 627.833 593.333 628.119 593.906C628.406 594.453 628.848 594.87 629.447 595.156C630.046 595.417 630.814 595.547 631.752 595.547C632.403 595.547 633.158 595.469 634.018 595.312C634.903 595.156 635.554 595.026 635.971 594.922L639.096 610.078C638.132 610.365 636.752 610.716 634.955 611.133C633.184 611.549 631.075 611.823 628.627 611.953C623.679 612.214 619.525 611.706 616.166 610.43C612.807 609.128 610.281 607.083 608.588 604.297C606.895 601.51 606.075 598.021 606.127 593.828V536.719Z" fill="#F5B325"/>
<path d="M674.906 612.188C668.5 612.188 662.979 610.964 658.344 608.516C653.734 606.042 650.18 602.5 647.68 597.891C645.206 593.255 643.969 587.708 643.969 581.25C643.969 575.052 645.219 569.635 647.719 565C650.219 560.365 653.747 556.758 658.305 554.18C662.862 551.602 668.24 550.312 674.438 550.312C678.969 550.312 683.07 551.016 686.742 552.422C690.414 553.828 693.552 555.872 696.156 558.555C698.76 561.211 700.766 564.44 702.172 568.242C703.578 572.044 704.281 576.328 704.281 581.094V586.094H650.688V574.219H684.438C684.411 572.5 683.969 570.99 683.109 569.688C682.276 568.359 681.143 567.331 679.711 566.602C678.305 565.846 676.703 565.469 674.906 565.469C673.161 565.469 671.56 565.846 670.102 566.602C668.643 567.331 667.471 568.346 666.586 569.648C665.727 570.951 665.271 572.474 665.219 574.219V587.031C665.219 588.958 665.622 590.677 666.43 592.188C667.237 593.698 668.396 594.883 669.906 595.742C671.417 596.602 673.24 597.031 675.375 597.031C676.859 597.031 678.214 596.823 679.438 596.406C680.688 595.99 681.755 595.391 682.641 594.609C683.526 593.802 684.177 592.839 684.594 591.719H704.281C703.604 595.885 702.003 599.505 699.477 602.578C696.951 605.625 693.604 607.995 689.438 609.688C685.297 611.354 680.453 612.188 674.906 612.188Z" fill="#F5B325"/>
<path d="M767.924 570.625H748.08C747.976 569.401 747.546 568.346 746.791 567.461C746.036 566.576 745.059 565.898 743.861 565.43C742.689 564.935 741.387 564.688 739.955 564.688C738.106 564.688 736.518 565.026 735.189 565.703C733.861 566.38 733.21 567.344 733.236 568.594C733.21 569.479 733.588 570.299 734.369 571.055C735.176 571.81 736.726 572.396 739.018 572.812L751.205 575C757.351 576.12 761.921 578.008 764.916 580.664C767.937 583.294 769.46 586.823 769.486 591.25C769.46 595.521 768.184 599.232 765.658 602.383C763.158 605.508 759.734 607.93 755.385 609.648C751.062 611.341 746.127 612.188 740.58 612.188C731.413 612.188 724.239 610.312 719.057 606.562C713.9 602.812 711.023 597.865 710.424 591.719H731.83C732.117 593.62 733.054 595.091 734.643 596.133C736.257 597.148 738.288 597.656 740.736 597.656C742.715 597.656 744.343 597.318 745.619 596.641C746.921 595.964 747.585 595 747.611 593.75C747.585 592.604 747.012 591.693 745.893 591.016C744.799 590.339 743.08 589.792 740.736 589.375L730.111 587.5C723.992 586.432 719.408 584.401 716.361 581.406C713.314 578.411 711.804 574.557 711.83 569.844C711.804 565.677 712.898 562.148 715.111 559.258C717.351 556.341 720.541 554.128 724.682 552.617C728.848 551.081 733.783 550.312 739.486 550.312C748.158 550.312 754.994 552.109 759.994 555.703C765.02 559.297 767.663 564.271 767.924 570.625Z" fill="#F5B325"/>
</svg>
