<svg width="3850" height="581" viewBox="0 0 3850 581" fill="none" xmlns="http://www.w3.org/2000/svg">
<mask id="mask0_326_2" style="mask-type:alpha" maskUnits="userSpaceOnUse" x="329" y="0" width="281" height="511">
<path fill-rule="evenodd" clip-rule="evenodd" d="M329.255 0H609.73V510.774H329.255V0Z" fill="white"/>
</mask>
<g mask="url(#mask0_326_2)">
<path fill-rule="evenodd" clip-rule="evenodd" d="M365.441 4.49642C335.527 16.9107 321.332 51.2426 333.75 81.1673L496.893 474.573C509.303 504.498 543.615 518.697 573.537 506.283C603.458 493.861 617.653 459.537 605.235 429.612L442.1 36.1988C429.682 6.27412 395.363 -7.92528 365.441 4.49642Z" fill="#F5B325"/>
</g>
<mask id="mask1_326_2" style="mask-type:alpha" maskUnits="userSpaceOnUse" x="0" y="0" width="280" height="511">
<path fill-rule="evenodd" clip-rule="evenodd" d="M0 0.000976562H279.556V510.774H0V0.000976562Z" fill="white"/>
</mask>
<g mask="url(#mask1_326_2)">
<path fill-rule="evenodd" clip-rule="evenodd" d="M36.0702 506.284C6.25446 493.862 -7.89326 459.53 4.47584 429.606L167.082 36.1998C179.459 6.2751 213.651 -7.9243 243.482 4.4974C273.305 16.9117 287.452 51.2362 275.076 81.1609L112.469 474.574C100.1 504.499 65.8933 518.698 36.0702 506.284Z" fill="#F5B325"/>
</g>
<mask id="mask2_326_2" style="mask-type:alpha" maskUnits="userSpaceOnUse" x="492" y="0" width="281" height="511">
<path fill-rule="evenodd" clip-rule="evenodd" d="M492.497 0.000976562H772.973V510.774H492.497V0.000976562Z" fill="white"/>
</mask>
<g mask="url(#mask2_326_2)">
<path fill-rule="evenodd" clip-rule="evenodd" d="M736.786 506.284C766.7 493.862 780.895 459.53 768.485 429.606L605.342 36.1998C592.924 6.2751 558.612 -7.9243 528.69 4.4974C498.769 16.9117 484.574 51.2362 496.992 81.1609L660.135 474.574C672.545 504.499 706.865 518.698 736.786 506.284Z" fill="white"/>
</g>
<path opacity="0.123512" fill-rule="evenodd" clip-rule="evenodd" d="M416.501 284.021L480.361 130.984L440.638 35.7869C435.603 23.7272 426.957 14.2808 416.501 8.04736C406.045 14.2808 397.399 23.7272 392.365 35.7869L352.634 130.984L416.501 284.021Z" fill="black"/>
<mask id="mask3_326_2" style="mask-type:alpha" maskUnits="userSpaceOnUse" x="163" y="0" width="281" height="511">
<path fill-rule="evenodd" clip-rule="evenodd" d="M163.235 0H443.714V510.774H163.235V0Z" fill="white"/>
</mask>
<g mask="url(#mask3_326_2)">
<path fill-rule="evenodd" clip-rule="evenodd" d="M407.52 4.49642C437.442 16.9107 451.636 51.2426 439.219 81.1673L276.076 474.573C263.666 504.498 229.354 518.697 199.425 506.283C169.51 493.861 155.316 459.537 167.726 429.612L330.869 36.1988C343.286 6.27412 377.606 -7.92528 407.52 4.49642Z" fill="white"/>
</g>
<path d="M852.292 581C841.193 581 830.619 580.124 820.571 578.371C810.524 576.735 801.703 574.457 794.108 571.536L815.139 502.837C823.083 505.641 830.327 507.452 836.87 508.27C843.53 509.088 849.196 508.62 853.87 506.868C858.66 505.115 862.107 501.785 864.21 496.878L866.313 491.971L771.676 210.865H872.622L916.085 397.334H918.889L963.052 210.865H1064.7L966.558 502.486C961.65 517.324 954.523 530.644 945.177 542.444C935.947 554.361 923.796 563.767 908.724 570.66C893.652 577.553 874.842 581 852.292 581Z" fill="#F5B325"/>
<path d="M2568.36 328.635V480.054H2471.62V210.865H2563.45V262.039H2566.25C2572.09 244.981 2582.38 231.603 2597.1 221.906C2611.94 212.208 2629.23 207.36 2648.97 207.36C2668.02 207.36 2684.55 211.741 2698.57 220.504C2712.71 229.15 2723.63 241.067 2731.34 256.255C2739.17 271.444 2743.03 288.794 2742.91 308.306V480.054H2646.17V328.635C2646.29 315.316 2642.9 304.859 2636 297.265C2629.23 289.67 2619.76 285.873 2607.61 285.873C2599.67 285.873 2592.72 287.626 2586.76 291.131C2580.92 294.519 2576.42 299.426 2573.26 305.852C2570.11 312.161 2568.47 319.756 2568.36 328.635Z" fill="#F5B325"/>
<path d="M2920.35 484.961C2891.14 484.961 2866.14 479.178 2845.34 467.611C2824.55 455.927 2808.6 439.687 2797.5 418.891C2786.4 397.977 2780.85 373.734 2780.85 346.16C2780.85 318.587 2786.4 294.402 2797.5 273.606C2808.6 252.692 2824.55 236.452 2845.34 224.885C2866.14 213.202 2891.14 207.36 2920.35 207.36C2949.56 207.36 2974.56 213.202 2995.36 224.885C3016.16 236.452 3032.11 252.692 3043.21 273.606C3054.3 294.402 3059.85 318.587 3059.85 346.16C3059.85 373.734 3054.3 397.977 3043.21 418.891C3032.11 439.687 3016.16 455.927 2995.36 467.611C2974.56 479.178 2949.56 484.961 2920.35 484.961ZM2921.05 413.458C2929.23 413.458 2936.3 410.712 2942.26 405.221C2948.22 399.73 2952.83 391.902 2956.1 381.737C2959.38 371.572 2961.01 359.48 2961.01 345.459C2961.01 331.322 2959.38 319.23 2956.1 309.182C2952.83 299.017 2948.22 291.189 2942.26 285.698C2936.3 280.207 2929.23 277.461 2921.05 277.461C2912.41 277.461 2904.99 280.207 2898.8 285.698C2892.6 291.189 2887.87 299.017 2884.6 309.182C2881.33 319.23 2879.69 331.322 2879.69 345.459C2879.69 359.48 2881.33 371.572 2884.6 381.737C2887.87 391.902 2892.6 399.73 2898.8 405.221C2904.99 410.712 2912.41 413.458 2921.05 413.458Z" fill="#F5B325"/>
<path d="M3259.64 210.865V280.966H3082.29V210.865H3259.64ZM3116.64 146.372H3213.38V393.479C3213.38 397.218 3214.02 400.372 3215.3 402.943C3216.59 405.396 3218.58 407.265 3221.26 408.551C3223.95 409.719 3227.4 410.303 3231.6 410.303C3234.52 410.303 3237.91 409.953 3241.77 409.252C3245.74 408.551 3248.66 407.966 3250.53 407.499L3264.55 475.497C3260.23 476.783 3254.03 478.36 3245.97 480.229C3238.03 482.099 3228.56 483.325 3217.58 483.91C3195.38 485.078 3176.75 482.8 3161.68 477.075C3146.6 471.233 3135.27 462.061 3127.68 449.56C3120.08 437.059 3116.4 421.403 3116.64 402.592V146.372Z" fill="#F5B325"/>
<path d="M3425.21 484.961C3396.47 484.961 3371.7 479.47 3350.91 468.487C3330.23 457.388 3314.28 441.498 3303.06 420.818C3291.96 400.022 3286.41 375.136 3286.41 346.16C3286.41 318.354 3292.02 294.052 3303.24 273.255C3314.45 252.458 3330.28 236.277 3350.73 224.71C3371.18 213.143 3395.3 207.36 3423.11 207.36C3443.44 207.36 3461.84 210.514 3478.32 216.823C3494.79 223.133 3508.87 232.304 3520.55 244.338C3532.23 256.255 3541.23 270.743 3547.54 287.801C3553.85 304.859 3557 324.079 3557 345.459V367.892H3316.56V314.615H3467.98C3467.86 306.904 3465.87 300.127 3462.02 294.285C3458.28 288.327 3453.2 283.712 3446.77 280.44C3440.46 277.052 3433.28 275.358 3425.21 275.358C3417.39 275.358 3410.2 277.052 3403.66 280.44C3397.11 283.712 3391.86 288.268 3387.88 294.11C3384.03 299.952 3381.98 306.787 3381.75 314.615V372.098C3381.75 380.744 3383.56 388.455 3387.18 395.231C3390.81 402.008 3396 407.324 3402.78 411.179C3409.56 415.035 3417.74 416.963 3427.32 416.963C3433.98 416.963 3440.05 416.028 3445.54 414.159C3451.15 412.289 3455.94 409.602 3459.91 406.097C3463.89 402.475 3466.81 398.152 3468.68 393.128H3557C3553.97 411.822 3546.78 428.062 3535.45 441.849C3524.11 455.519 3509.1 466.151 3490.41 473.745C3471.83 481.222 3450.1 484.961 3425.21 484.961Z" fill="#F5B325"/>
<path d="M3842.54 298.492H3753.51C3753.04 293 3751.11 288.268 3747.72 284.296C3744.34 280.324 3739.95 277.286 3734.58 275.183C3729.32 272.963 3723.48 271.853 3717.05 271.853C3708.76 271.853 3701.63 273.372 3695.67 276.41C3689.71 279.447 3686.79 283.77 3686.91 289.378C3686.79 293.351 3688.49 297.031 3691.99 300.419C3695.61 303.808 3702.57 306.436 3712.85 308.306L3767.53 318.12C3795.1 323.144 3815.61 331.614 3829.04 343.532C3842.59 355.332 3849.43 371.163 3849.55 391.025C3849.43 410.186 3843.7 426.835 3832.37 440.973C3821.15 454.993 3805.79 465.858 3786.28 473.57C3766.88 481.164 3744.74 484.961 3719.86 484.961C3678.73 484.961 3646.54 476.549 3623.29 459.725C3600.16 442.9 3587.25 420.702 3584.56 393.128H3680.6C3681.89 401.657 3686.09 408.259 3693.22 412.932C3700.46 417.489 3709.58 419.767 3720.56 419.767C3729.44 419.767 3736.74 418.248 3742.47 415.21C3748.31 412.173 3751.29 407.85 3751.4 402.242C3751.29 397.101 3748.72 393.012 3743.69 389.974C3738.79 386.936 3731.07 384.482 3720.56 382.613L3672.89 374.201C3645.43 369.411 3624.87 360.298 3611.2 346.861C3597.53 333.425 3590.76 316.134 3590.87 294.986C3590.76 276.293 3595.66 260.462 3605.59 247.493C3615.64 234.407 3629.95 224.476 3648.53 217.7C3667.22 210.806 3689.36 207.36 3714.95 207.36C3753.86 207.36 3784.53 215.421 3806.96 231.545C3829.51 247.668 3841.37 269.984 3842.54 298.492Z" fill="#F5B325"/>
<path d="M1314.8 233.297C1313.87 221.614 1309.49 212.501 1301.66 205.958C1293.95 199.415 1282.21 196.144 1266.43 196.144C1256.39 196.144 1248.15 197.37 1241.72 199.824C1235.41 202.161 1230.74 205.374 1227.7 209.463C1224.67 213.552 1223.09 218.226 1222.97 223.483C1222.74 227.806 1223.5 231.72 1225.25 235.225C1227.12 238.613 1230.04 241.709 1234.01 244.514C1237.98 247.201 1243.07 249.654 1249.26 251.874C1255.45 254.094 1262.81 256.08 1271.34 257.833L1300.78 264.142C1320.65 268.348 1337.65 273.898 1351.78 280.791C1365.92 287.684 1377.49 295.804 1386.48 305.151C1395.48 314.381 1402.08 324.78 1406.29 336.346C1410.61 347.913 1412.83 360.531 1412.95 374.201C1412.83 397.802 1406.93 417.781 1395.25 434.138C1383.56 450.495 1366.85 462.938 1345.12 471.467C1323.51 479.996 1297.51 484.26 1267.13 484.26C1235.94 484.26 1208.72 479.645 1185.47 470.415C1162.33 461.185 1144.34 446.99 1131.49 427.829C1118.75 408.551 1112.33 383.898 1112.21 353.872H1204.74C1205.33 364.854 1208.07 374.084 1212.98 381.562C1217.89 389.039 1224.78 394.706 1233.66 398.561C1242.66 402.417 1253.35 404.345 1265.73 404.345C1276.13 404.345 1284.84 403.059 1291.85 400.489C1298.86 397.919 1304.17 394.355 1307.79 389.799C1311.42 385.242 1313.28 380.043 1313.4 374.201C1313.28 368.71 1311.47 363.919 1307.97 359.83C1304.58 355.624 1298.97 351.885 1291.14 348.614C1283.32 345.226 1272.74 342.071 1259.42 339.15L1223.67 331.439C1191.89 324.546 1166.83 313.038 1148.49 296.914C1130.26 280.674 1121.21 258.534 1121.32 230.493C1121.21 207.71 1127.28 187.79 1139.55 170.732C1151.94 153.557 1169.05 140.179 1190.9 130.599C1212.86 121.018 1238.04 116.228 1266.43 116.228C1295.41 116.228 1320.47 121.077 1341.62 130.774C1362.76 140.471 1379.06 154.141 1390.51 171.783C1402.08 189.309 1407.92 209.813 1408.04 233.297H1314.8Z" fill="white"/>
<path d="M1529.27 480.054H1424.12L1542.59 121.135H1675.78L1794.25 480.054H1689.1L1610.59 219.978H1607.78L1529.27 480.054ZM1509.64 338.449H1707.33V411.355H1509.64V338.449Z" fill="white"/>
<path d="M1828.82 480.054V121.135H2081.19V199.649H1926.26V261.338H2065.76V339.851H1926.26V480.054H1828.82Z" fill="white"/>
<path d="M2117.03 480.054V121.135H2375.7V199.649H2214.47V261.338H2362.38V339.851H2214.47V401.541H2375V480.054H2117.03Z" fill="white"/>
</svg>
