<svg width="215" height="474" viewBox="0 0 215 474" fill="none" xmlns="http://www.w3.org/2000/svg">
<path fill-rule="evenodd" clip-rule="evenodd" d="M213.425 299.291C199.848 307.62 184.854 312.24 169.09 312.24C107.878 312.24 58.2547 242.565 58.2547 156.616C58.2547 70.6675 107.878 0.992294 169.09 0.992294C184.854 0.992294 199.848 5.61269 213.425 13.9416V299.291Z" fill="#B1C0FA"/>
<path fill-rule="evenodd" clip-rule="evenodd" d="M17.57 174.396C31.1005 166.059 46.0443 161.434 61.754 161.434C122.759 161.434 172.214 231.182 172.214 317.221C172.214 403.259 122.759 473.008 61.754 473.008C46.0443 473.008 31.1005 468.382 17.57 460.045V174.396Z" fill="white"/>
<ellipse cx="16.5" cy="380" rx="16.5" ry="16" fill="#FFBA27"/>
</svg>
