<svg width="211" height="472" viewBox="0 0 211 472" fill="none" xmlns="http://www.w3.org/2000/svg">
<path fill-rule="evenodd" clip-rule="evenodd" d="M209.46 0C125.6 0.839642 57.8735 70.1898 57.8735 155.616C57.8735 241.565 126.431 311.24 211 311.24L209.461 311.227L209.46 0Z" fill="#B1C0FA"/>
<path fill-rule="evenodd" clip-rule="evenodd" d="M18.1327 472C101.708 471.159 169.205 401.736 169.205 316.221C169.205 230.182 100.88 160.434 16.5977 160.434L18.1314 160.447L18.1327 472Z" fill="white"/>
<path d="M17.0839 395C25.9862 395 33.2029 387.837 33.2029 379C33.2029 370.163 25.9862 363 17.0839 363C8.18157 363 0.964844 370.163 0.964844 379C0.964844 387.837 8.18157 395 17.0839 395Z" fill="#FFBA27"/>
</svg>
