<svg width="211" height="472" viewBox="0 0 211 472" fill="none" xmlns="http://www.w3.org/2000/svg">
    <path fill-rule="evenodd" clip-rule="evenodd"
          d="M1.53984 0C85.4 0.839642 153.126 70.1898 153.126 155.616C153.126 241.565 84.5694 311.24 0 311.24L1.53864 311.227L1.53984 0Z"
          fill="#B1C0FA"/>
    <path fill-rule="evenodd" clip-rule="evenodd"
          d="M192.867 472C109.292 471.159 41.7951 401.736 41.7951 316.221C41.7951 230.182 110.12 160.434 194.402 160.434L192.869 160.447L192.867 472Z"
          fill="white"/>
    <path d="M193.916 395C185.014 395 177.797 387.837 177.797 379C177.797 370.163 185.014 363 193.916 363C202.818 363 210.035 370.163 210.035 379C210.035 387.837 202.818 395 193.916 395Z"
          fill="#FFBA27"/>
</svg>
