<svg width="468" height="164" viewBox="0 0 468 164" fill="none" xmlns="http://www.w3.org/2000/svg">
<path fill-rule="evenodd" clip-rule="evenodd" d="M-195.246 189.617H-94.5915C-94.5915 140.597 -54.8425 100.86 -5.80811 100.86C43.2226 100.86 82.9753 140.597 82.9753 189.617H183.63C183.63 85.0251 98.8181 0.234375 -5.80811 0.234375C-110.434 0.234375 -195.246 85.0251 -195.246 189.617Z" fill="white"/>
<path fill-rule="evenodd" clip-rule="evenodd" d="M-5.80859 0.234375V100.86C43.2221 100.86 82.9748 140.597 82.9748 189.617C82.9748 238.637 43.2221 278.375 -5.80859 278.375V379C98.814 379 183.629 294.213 183.629 189.617C183.629 85.0251 98.814 0.234375 -5.80859 0.234375Z" fill="white"/>
<mask id="mask0_0_6" style="mask-type:alpha" maskUnits="userSpaceOnUse" x="184" y="0" width="379" height="190">
<path fill-rule="evenodd" clip-rule="evenodd" d="M184.016 0.291016H562.891V189.74H184.016V0.291016Z" fill="white"/>
</mask>
<g mask="url(#mask0_0_6)">
<path fill-rule="evenodd" clip-rule="evenodd" d="M184.016 189.74H284.674C284.674 140.703 324.419 100.952 373.454 100.952H373.457C422.488 100.952 462.237 140.703 462.237 189.74H562.895C562.895 85.1078 478.08 0.291016 373.457 0.291016H373.454C268.831 0.291016 184.016 85.1078 184.016 189.74Z" fill="#FFBA27"/>
</g>
</svg>
