<svg width="33" height="138" viewBox="0 0 33 138" fill="none" xmlns="http://www.w3.org/2000/svg">
<mask id="mask0_0_67" style="mask-type:alpha" maskUnits="userSpaceOnUse" x="-94" y="0" width="126" height="137">
<path fill-rule="evenodd" clip-rule="evenodd" d="M-93.8457 0.210938H31.8284V136.813H-93.8457V0.210938Z" fill="white"/>
</mask>
<g mask="url(#mask0_0_67)">
<path fill-rule="evenodd" clip-rule="evenodd" d="M161.92 131.362L-88.3959 -118.956L-93.8457 -113.506L156.47 136.812L161.92 131.362Z" fill="white"/>
</g>
<mask id="mask1_0_67" style="mask-type:alpha" maskUnits="userSpaceOnUse" x="-105" y="0" width="137" height="137">
<path fill-rule="evenodd" clip-rule="evenodd" d="M-104.651 0.210938H31.8285V136.814H-104.651V0.210938Z" fill="white"/>
</mask>
<g mask="url(#mask1_0_67)">
<path fill-rule="evenodd" clip-rule="evenodd" d="M151.114 142.167L-99.2015 -108.148L-104.651 -102.699L145.664 147.619L151.114 142.167Z" fill="white"/>
</g>
<mask id="mask2_0_67" style="mask-type:alpha" maskUnits="userSpaceOnUse" x="-105" y="0" width="137" height="137">
<path fill-rule="evenodd" clip-rule="evenodd" d="M-104.774 0.210938H31.8285V136.814H-104.774V0.210938Z" fill="white"/>
</mask>
<g mask="url(#mask2_0_67)">
<path fill-rule="evenodd" clip-rule="evenodd" d="M140.308 152.972L-110.007 -97.3457L-115.457 -91.8932L134.858 158.422L140.308 152.972Z" fill="white"/>
</g>
<mask id="mask3_0_67" style="mask-type:alpha" maskUnits="userSpaceOnUse" x="-105" y="0" width="137" height="137">
<path fill-rule="evenodd" clip-rule="evenodd" d="M-104.774 0.210938H31.8285V136.814H-104.774V0.210938Z" fill="white"/>
</mask>
<g mask="url(#mask3_0_67)">
<path fill-rule="evenodd" clip-rule="evenodd" d="M129.505 163.778L-120.813 -86.54L-126.263 -81.0902L124.053 169.228L129.505 163.778Z" fill="white"/>
</g>
<mask id="mask4_0_67" style="mask-type:alpha" maskUnits="userSpaceOnUse" x="-105" y="0" width="137" height="137">
<path fill-rule="evenodd" clip-rule="evenodd" d="M-104.774 0.210938H31.8285V136.814H-104.774V0.210938Z" fill="white"/>
</mask>
<g mask="url(#mask4_0_67)">
<path fill-rule="evenodd" clip-rule="evenodd" d="M118.7 174.584L-131.619 -75.7344L-137.068 -70.2845L113.247 180.033L118.7 174.584Z" fill="white"/>
</g>
<mask id="mask5_0_67" style="mask-type:alpha" maskUnits="userSpaceOnUse" x="-105" y="0" width="137" height="137">
<path fill-rule="evenodd" clip-rule="evenodd" d="M-104.774 0.210938H31.8285V136.814H-104.774V0.210938Z" fill="white"/>
</mask>
<g mask="url(#mask5_0_67)">
<path fill-rule="evenodd" clip-rule="evenodd" d="M107.894 185.388L-142.424 -64.9272L-147.874 -59.4774L102.444 190.841L107.894 185.388Z" fill="white"/>
</g>
<mask id="mask6_0_67" style="mask-type:alpha" maskUnits="userSpaceOnUse" x="-105" y="0" width="137" height="137">
<path fill-rule="evenodd" clip-rule="evenodd" d="M-104.774 0.210938H31.8285V136.814H-104.774V0.210938Z" fill="white"/>
</mask>
<g mask="url(#mask6_0_67)">
<path fill-rule="evenodd" clip-rule="evenodd" d="M97.0882 196.194L-153.23 -54.1245L-158.68 -48.672L91.6383 201.646L97.0882 196.194Z" fill="white"/>
</g>
<mask id="mask7_0_67" style="mask-type:alpha" maskUnits="userSpaceOnUse" x="-105" y="0" width="137" height="137">
<path fill-rule="evenodd" clip-rule="evenodd" d="M-104.774 0.210938H31.8285V136.814H-104.774V0.210938Z" fill="white"/>
</mask>
<g mask="url(#mask7_0_67)">
<path fill-rule="evenodd" clip-rule="evenodd" d="M86.2825 206.999L-164.033 -43.3188L-169.485 -37.869L80.8327 212.449L86.2825 206.999Z" fill="white"/>
</g>
<mask id="mask8_0_67" style="mask-type:alpha" maskUnits="userSpaceOnUse" x="-105" y="0" width="137" height="137">
<path fill-rule="evenodd" clip-rule="evenodd" d="M-104.774 0.210938H31.8285V136.814H-104.774V0.210938Z" fill="white"/>
</mask>
<g mask="url(#mask8_0_67)">
<path fill-rule="evenodd" clip-rule="evenodd" d="M75.4772 217.805L-174.838 -32.5132L-180.288 -27.0633L70.0273 223.255L75.4772 217.805Z" fill="white"/>
</g>
<mask id="mask9_0_67" style="mask-type:alpha" maskUnits="userSpaceOnUse" x="-105" y="0" width="137" height="137">
<path fill-rule="evenodd" clip-rule="evenodd" d="M-104.774 0.210938H31.8285V136.814H-104.774V0.210938Z" fill="white"/>
</mask>
<g mask="url(#mask9_0_67)">
<path fill-rule="evenodd" clip-rule="evenodd" d="M64.6715 228.609L-185.644 -21.7061L-191.094 -16.2562L59.2216 234.062L64.6715 228.609Z" fill="white"/>
</g>
<mask id="mask10_0_67" style="mask-type:alpha" maskUnits="userSpaceOnUse" x="-105" y="0" width="137" height="137">
<path fill-rule="evenodd" clip-rule="evenodd" d="M-104.774 0.210938H31.8285V136.814H-104.774V0.210938Z" fill="white"/>
</mask>
<g mask="url(#mask10_0_67)">
<path fill-rule="evenodd" clip-rule="evenodd" d="M53.8658 239.415L-196.45 -10.9033L-201.899 -5.45085L48.416 244.867L53.8658 239.415Z" fill="white"/>
</g>
<mask id="mask11_0_67" style="mask-type:alpha" maskUnits="userSpaceOnUse" x="-105" y="0" width="137" height="137">
<path fill-rule="evenodd" clip-rule="evenodd" d="M-104.774 0.210938H31.8285V136.814H-104.774V0.210938Z" fill="white"/>
</mask>
<g mask="url(#mask11_0_67)">
<path fill-rule="evenodd" clip-rule="evenodd" d="M43.0602 250.22L-207.255 -0.0976562L-212.705 5.35482L37.6103 255.67L43.0602 250.22Z" fill="white"/>
</g>
<mask id="mask12_0_67" style="mask-type:alpha" maskUnits="userSpaceOnUse" x="-105" y="10" width="137" height="127">
<path fill-rule="evenodd" clip-rule="evenodd" d="M-104.774 10.708H31.8285V136.814H-104.774V10.708Z" fill="white"/>
</mask>
<g mask="url(#mask12_0_67)">
<path fill-rule="evenodd" clip-rule="evenodd" d="M32.2545 261.026L-218.061 10.708L-223.511 16.1579L26.8047 266.476L32.2545 261.026Z" fill="white"/>
</g>
</svg>
