<svg width="21" height="20" viewBox="0 0 21 20" fill="none" xmlns="http://www.w3.org/2000/svg">
<path d="M8.13411 9.05866C8.05078 9.05033 7.95078 9.05033 7.85911 9.05866C5.87578 8.99199 4.30078 7.36699 4.30078 5.36699C4.30078 3.32533 5.95078 1.66699 8.00078 1.66699C10.0424 1.66699 11.7008 3.32533 11.7008 5.36699C11.6924 7.36699 10.1174 8.99199 8.13411 9.05866Z" stroke="#909395" stroke-width="1.5" stroke-linecap="round" stroke-linejoin="round"/>
<path d="M14.1747 3.33301C15.7914 3.33301 17.0914 4.64134 17.0914 6.24967C17.0914 7.82468 15.8414 9.10801 14.2831 9.16634C14.2164 9.15801 14.1414 9.15801 14.0664 9.16634" stroke="#909395" stroke-width="1.5" stroke-linecap="round" stroke-linejoin="round"/>
<path d="M3.96758 12.133C1.95091 13.483 1.95091 15.683 3.96758 17.0247C6.25924 18.558 10.0176 18.558 12.3092 17.0247C14.3259 15.6747 14.3259 13.4747 12.3092 12.133C10.0259 10.608 6.26758 10.608 3.96758 12.133Z" stroke="#909395" stroke-width="1.5" stroke-linecap="round" stroke-linejoin="round"/>
<path d="M15.7832 16.667C16.3832 16.542 16.9499 16.3003 17.4165 15.942C18.7165 14.967 18.7165 13.3587 17.4165 12.3837C16.9582 12.0337 16.3999 11.8003 15.8082 11.667" stroke="#909395" stroke-width="1.5" stroke-linecap="round" stroke-linejoin="round"/>
</svg>
