<svg width="18" height="18" viewBox="0 0 18 18" fill="none" xmlns="http://www.w3.org/2000/svg">
    <path d="M4.21875 8.99999C4.21875 8.10819 4.46446 7.27277 4.89132 6.55744V3.52318H1.85706C0.652781 5.08721 0 6.99335 0 8.99999C0 11.0066 0.652781 12.9128 1.85706 14.4768H4.89132V11.4425C4.46446 10.7272 4.21875 9.8918 4.21875 8.99999Z"
          fill="#FBBD00"/>
    <path d="M9 13.7812L6.89062 15.8906L9 18C11.0067 18 12.9128 17.3472 14.4768 16.1429V13.1119H11.4458C10.7242 13.5403 9.88527 13.7812 9 13.7812Z"
          fill="#0F9D58"/>
    <path d="M4.89169 11.4426L1.85742 14.4768C2.09585 14.7865 2.35548 15.083 2.63641 15.364C4.33629 17.0638 6.59638 18 9.00036 18V13.7812C7.25577 13.7812 5.72672 12.8419 4.89169 11.4426Z"
          fill="#31AA52"/>
    <path d="M18 8.99999C18 8.45243 17.9504 7.90386 17.8526 7.36955L17.7735 6.93716H9V11.1559H13.2698C12.8552 11.9807 12.2176 12.6536 11.4457 13.1119L14.4768 16.143C14.7864 15.9045 15.083 15.6449 15.3639 15.364C17.0638 13.6641 18 11.404 18 8.99999Z"
          fill="#3C79E6"/>
    <path d="M12.3809 5.61913L12.7537 5.992L15.7369 3.00892L15.364 2.63605C13.6641 0.936176 11.404 0 9 0L6.89062 2.10938L9 4.21875C10.2771 4.21875 11.4778 4.71607 12.3809 5.61913Z"
          fill="#CF2D48"/>
    <path d="M9.0004 4.21875V0C6.59641 0 4.33632 0.936176 2.63641 2.63602C2.35548 2.91695 2.09585 3.21349 1.85742 3.52318L4.89169 6.55745C5.72675 5.15812 7.25581 4.21875 9.0004 4.21875Z"
          fill="#EB4132"/>
</svg>
