<svg width="22" height="22" viewBox="0 0 22 22" fill="none" xmlns="http://www.w3.org/2000/svg">
    <path d="M19.796 19.8V19.7993H19.8004V13.3445C19.8004 10.1869 19.1206 7.75433 15.429 7.75433C13.6543 7.75433 12.4634 8.72827 11.9772 9.65139H11.926V8.04913H8.42578V19.7993H12.0705V13.981C12.0705 12.4491 12.3609 10.9677 14.258 10.9677C16.1273 10.9677 16.155 12.716 16.155 14.0791V19.8H19.796Z"
          fill="#0073B1"/>
    <path d="M2.49023 8.0498H6.13937V19.8H2.49023V8.0498Z" fill="#0073B1"/>
    <path d="M4.31374 2.2C3.14686 2.2 2.2002 3.14666 2.2002 4.31354C2.2002 5.48042 3.14686 6.44688 4.31374 6.44688C5.48062 6.44688 6.42728 5.48042 6.42728 4.31354C6.4264 3.14666 5.47974 2.2 4.31374 2.2Z"
          fill="#0073B1"/>
</svg>
